{
  "accessors": [
    {
      "bufferView": 1,
      "componentType": 5126,
      "count": 63,
      "max": [
        0.4575900137424469,
        0.07739000022411346,
        1.0355299711227417
      ],
      "min": [
        -0.4784500002861023,
        -0.28863000869750977,
        -0.6687099933624268
      ],
      "type": "VEC3"
    },
    {
      "bufferView": 1,
      "byteOffset": 756,
      "componentType": 5126,
      "count": 63,
      "max": [
        0.9963982105255127,
        0.9997210502624512,
        0.04189009964466095
      ],
      "min": [
        -0.9964913129806519,
        -0.9998500943183899,
        -0.2766795754432678
      ],
      "type": "VEC3"
    },
    {
      "bufferView": 0,
      "componentType": 5125,
      "count": 75,
      "type": "SCALAR"
    }
  ],
  "asset": {
    "extras": {
      "author": "gloryfish (https://sketchfab.com/gloryfish)",
      "license": "CC-BY-4.0 (http://creativecommons.org/licenses/by/4.0/)",
      "source": "https://sketchfab.com/3d-models/paper-airplane-36d00a94129f4556bfffbe6f191f092c",
      "title": "Paper Airplane"
    },
    "generator": "Sketchfab-12.68.0",
    "version": "2.0"
  },
  "bufferViews": [
    {
      "buffer": 0,
      "byteLength": 300,
      "name": "floatBufferViews",
      "target": 34963
    },
    {
      "buffer": 0,
      "byteLength": 1512,
      "byteOffset": 300,
      "byteStride": 12,
      "name": "floatBufferViews",
      "target": 34962
    }
  ],
  "buffers": [
    {
      "byteLength": 1812,
      "uri": "scene.bin"
    }
  ],
  "materials": [
    {
      "doubleSided": true,
      "name": "Root",
      "pbrMetallicRoughness": {
        "baseColorFactor": [
          0.5,
          0.5,
          0.5,
          1.0
        ],
        "metallicFactor": 0.0,
        "roughnessFactor": 0.6
      }
    }
  ],
  "meshes": [
    {
      "name": "Airplane",
      "primitives": [
        {
          "attributes": {
            "NORMAL": 1,
            "POSITION": 0
          },
          "indices": 2,
          "material": 0,
          "mode": 4
        }
      ]
    }
  ],
  "nodes": [
    {
      "children": [
        1
      ],
      "matrix": [
        1.0,
        0.0,
        0.0,
        0.0,
        0.0,
        2.220446049250313e-16,
        -1.0,
        0.0,
        0.0,
        1.0,
        2.220446049250313e-16,
        0.0,
        0.0,
        0.0,
        0.0,
        1.0
      ],
      "name": "Sketchfab_model"
    },
    {
      "children": [
        2,
        4,
        6
      ],
      "name": "Root"
    },
    {
      "children": [
        3
      ],
      "matrix": [
        -0.29086000000000006,
        0.9551700000000001,
        -0.05519000000000001,
        0.0,
        -0.7711,
        -0.19988000000000003,
        0.6045200000000001,
        0.0,
        0.5663900000000001,
        0.21839000000000003,
        0.7946700000000001,
        0.0,
        3.82471,
        -2.23527,
        0.42922000000000005,
        1.0
      ],
      "name": "Lamp"
    },
    {
      "name": "Lamp"
    },
    {
      "children": [
        5
      ],
      "matrix": [
        1.0,
        0.0,
        0.0,
        0.0,
        0.0,
        1.0,
        0.0,
        0.0,
        0.0,
        0.0,
        1.0,
        0.0,
        2.3068599999999995,
        -2.2953300000000003,
        -0.14753000000000002,
        1.0
      ],
      "name": "Point"
    },
    {
      "name": "Point"
    },
    {
      "children": [
        7
      ],
      "name": "Airplane"
    },
    {
      "mesh": 0,
      "name": "Airplane"
    }
  ],
  "scene": 0,
  "scenes": [
    {
      "name": "Sketchfab_Scene",
      "nodes": [
        0
      ]
    }
  ]
}
